<svg focusable="false" class="icon icon--grid " viewBox="0 0 18 18" role="presentation">
      <path d="M1 .030067h2c.55228475 0 1 .44771525 1 1v2c0 .55228475-.44771525 1-1 1H1c-.55228475 0-1-.44771525-1-1v-2c0-.55228475.44771525-1 1-1zm0 7h2c.55228475 0 1 .44771525 1 1v2c0 .5522847-.44771525 1-1 1H1c-.55228475 0-1-.4477153-1-1v-2c0-.55228475.44771525-1 1-1zm0 7h2c.55228475 0 1 .4477153 1 1v2c0 .5522847-.44771525 1-1 1H1c-.55228475 0-1-.4477153-1-1v-2c0-.5522847.44771525-1 1-1zm7-14h2c.5522847 0 1 .44771525 1 1v2c0 .55228475-.4477153 1-1 1H8c-.55228475 0-1-.44771525-1-1v-2c0-.55228475.44771525-1 1-1zm0 7h2c.5522847 0 1 .44771525 1 1v2c0 .5522847-.4477153 1-1 1H8c-.55228475 0-1-.4477153-1-1v-2c0-.55228475.44771525-1 1-1zm0 7h2c.5522847 0 1 .4477153 1 1v2c0 .5522847-.4477153 1-1 1H8c-.55228475 0-1-.4477153-1-1v-2c0-.5522847.44771525-1 1-1zm7-14h2c.5522847 0 1 .44771525 1 1v2c0 .55228475-.4477153 1-1 1h-2c-.5522847 0-1-.44771525-1-1v-2c0-.55228475.4477153-1 1-1zm0 7h2c.5522847 0 1 .44771525 1 1v2c0 .5522847-.4477153 1-1 1h-2c-.5522847 0-1-.4477153-1-1v-2c0-.55228475.4477153-1 1-1zm0 7h2c.5522847 0 1 .4477153 1 1v2c0 .5522847-.4477153 1-1 1h-2c-.5522847 0-1-.4477153-1-1v-2c0-.5522847.4477153-1 1-1z" fill="currentColor" fill-rule="evenodd"></path>
    </svg>