<svg focusable="false" class="icon icon--list " viewBox="0 0 18 18" role="presentation">
    <path d="M8 1.030067h9c.5522847 0 1 .44771525 1 1s-.4477153 1-1 1H8c-.55228475 0-1-.44771525-1-1s.44771525-1 1-1zm0 7h9c.5522847 0 1 .44771525 1 1s-.4477153 1-1 1H8c-.55228475 0-1-.44771525-1-1s.44771525-1 1-1zm0 7h9c.5522847 0 1 .4477153 1 1s-.4477153 1-1 1H8c-.55228475 0-1-.4477153-1-1s.44771525-1 1-1zm-7-15h2c.55228475 0 1 .44771525 1 1v2c0 .55228475-.44771525 1-1 1H1c-.55228475 0-1-.44771525-1-1v-2c0-.55228475.44771525-1 1-1zm0 7h2c.55228475 0 1 .44771525 1 1v2c0 .5522847-.44771525 1-1 1H1c-.55228475 0-1-.4477153-1-1v-2c0-.55228475.44771525-1 1-1zm0 7h2c.55228475 0 1 .4477153 1 1v2c0 .5522847-.44771525 1-1 1H1c-.55228475 0-1-.4477153-1-1v-2c0-.5522847.44771525-1 1-1z" fill="currentColor" fill-rule="evenodd"></path>
</svg>